<svg xmlns="http://www.w3.org/2000/svg" xmlns:xlink="http://www.w3.org/1999/xlink" width="500" zoomAndPan="magnify" viewBox="0 0 375 374.999991" height="500" preserveAspectRatio="xMidYMid meet" version="1.0"><defs><g/><clipPath id="1fe86c6fd7"><path d="M 48.019531 48.019531 L 326.980469 48.019531 L 326.980469 326.980469 L 48.019531 326.980469 Z M 48.019531 48.019531 " clip-rule="nonzero"/></clipPath><clipPath id="6f80bac22b"><path d="M 187.5 48.019531 C 110.464844 48.019531 48.019531 110.464844 48.019531 187.5 C 48.019531 264.535156 110.464844 326.980469 187.5 326.980469 C 264.535156 326.980469 326.980469 264.535156 326.980469 187.5 C 326.980469 110.464844 264.535156 48.019531 187.5 48.019531 Z M 187.5 48.019531 " clip-rule="nonzero"/></clipPath><clipPath id="3b5aca07bb"><path d="M 19.296875 128.285156 L 48.019531 128.285156 L 48.019531 157.007812 L 19.296875 157.007812 Z M 19.296875 128.285156 " clip-rule="nonzero"/></clipPath><clipPath id="c709f9d398"><path d="M 33.65625 128.285156 C 25.726562 128.285156 19.296875 134.714844 19.296875 142.644531 C 19.296875 150.578125 25.726562 157.007812 33.65625 157.007812 C 41.589844 157.007812 48.019531 150.578125 48.019531 142.644531 C 48.019531 134.714844 41.589844 128.285156 33.65625 128.285156 Z M 33.65625 128.285156 " clip-rule="nonzero"/></clipPath><clipPath id="62dda8e98b"><path d="M 329.941406 230.179688 L 357.546875 230.179688 L 357.546875 257.785156 L 329.941406 257.785156 Z M 329.941406 230.179688 " clip-rule="nonzero"/></clipPath><clipPath id="4fbb7f0afd"><path d="M 343.746094 230.179688 C 336.121094 230.179688 329.941406 236.359375 329.941406 243.984375 C 329.941406 251.605469 336.121094 257.785156 343.746094 257.785156 C 351.367188 257.785156 357.546875 251.605469 357.546875 243.984375 C 357.546875 236.359375 351.367188 230.179688 343.746094 230.179688 Z M 343.746094 230.179688 " clip-rule="nonzero"/></clipPath></defs><g clip-path="url(#1fe86c6fd7)"><g clip-path="url(#6f80bac22b)"><path fill="#030240" d="M 48.019531 48.019531 L 326.980469 48.019531 L 326.980469 326.980469 L 48.019531 326.980469 Z M 48.019531 48.019531 " fill-opacity="1" fill-rule="nonzero"/></g></g><path fill="#ffffff" d="M 232.929688 156.773438 L 218.484375 156.773438 L 218.484375 146.863281 C 218.484375 139.839844 212.769531 134.125 205.75 134.125 L 169.507812 134.125 C 162.484375 134.125 156.769531 139.839844 156.769531 146.863281 L 156.769531 156.773438 L 142.328125 156.773438 C 135.304688 156.773438 129.589844 162.488281 129.589844 169.511719 L 129.589844 228.402344 C 129.589844 235.425781 135.304688 241.140625 142.328125 241.140625 L 232.929688 241.140625 C 239.953125 241.140625 245.667969 235.425781 245.667969 228.402344 L 245.667969 169.511719 C 245.667969 162.488281 239.953125 156.773438 232.929688 156.773438 Z M 169.507812 141.480469 L 205.75 141.480469 C 208.714844 141.480469 211.132812 143.894531 211.132812 146.863281 L 211.132812 156.773438 L 205.691406 156.773438 L 205.691406 154.109375 C 205.691406 149.335938 201.804688 145.449219 197.027344 145.449219 L 177.980469 145.449219 C 173.207031 145.449219 169.320312 149.335938 169.320312 154.109375 L 169.320312 156.773438 L 164.125 156.773438 L 164.125 146.863281 C 164.125 143.894531 166.539062 141.480469 169.507812 141.480469 Z M 198.335938 156.773438 L 176.675781 156.773438 L 176.675781 154.109375 C 176.675781 153.378906 177.25 152.804688 177.980469 152.804688 L 197.027344 152.804688 C 197.761719 152.804688 198.335938 153.378906 198.335938 154.109375 Z M 142.328125 164.128906 L 232.929688 164.128906 C 235.898438 164.128906 238.3125 166.542969 238.3125 169.511719 L 238.3125 182.246094 C 233.8125 185.464844 218.722656 195.269531 200.027344 196.863281 L 200.027344 195.367188 C 200.027344 191.71875 197.058594 188.75 193.40625 188.75 L 183.273438 188.75 C 179.625 188.75 176.65625 191.71875 176.65625 195.367188 L 176.65625 196.640625 C 157.363281 195.441406 141.570312 185.210938 136.945312 181.914062 L 136.945312 169.511719 C 136.945312 166.542969 139.359375 164.128906 142.328125 164.128906 Z M 192.671875 196.101562 L 192.671875 204.765625 L 184.011719 204.765625 L 184.011719 196.101562 Z M 232.929688 233.785156 L 142.328125 233.785156 C 139.359375 233.785156 136.945312 231.371094 136.945312 228.402344 L 136.945312 190.773438 C 144.683594 195.613281 159.234375 203.058594 176.65625 204.007812 L 176.65625 205.5 C 176.65625 209.148438 179.625 212.121094 183.273438 212.121094 L 193.40625 212.121094 C 197.058594 212.121094 200.027344 209.148438 200.027344 205.5 L 200.027344 204.246094 C 216.816406 202.980469 230.785156 195.808594 238.3125 191.097656 L 238.3125 228.402344 C 238.3125 231.371094 235.898438 233.785156 232.929688 233.785156 Z M 232.929688 233.785156 " fill-opacity="1" fill-rule="nonzero"/><g clip-path="url(#3b5aca07bb)"><g clip-path="url(#c709f9d398)"><path fill="#000000" d="M 19.296875 128.285156 L 48.019531 128.285156 L 48.019531 157.007812 L 19.296875 157.007812 Z M 19.296875 128.285156 " fill-opacity="1" fill-rule="nonzero"/></g></g><g fill="#000000" fill-opacity="1"><g transform="translate(47.189509, 122.369096)"><g><path d="M 12.78125 -24.53125 L 0.265625 -41.6875 L 2.875 -45.15625 L 17.671875 -23.390625 L 15.0625 -19.921875 L -4.203125 -26.9375 L 7.734375 -10.234375 L 5.140625 -6.796875 L -19.828125 -15.125 L -17.109375 -18.71875 L 2.84375 -11.375 L -9.671875 -28.5625 L -7.171875 -31.859375 Z M 12.78125 -24.53125 "/></g></g></g><g fill="#000000" fill-opacity="1"><g transform="translate(73.346405, 89.434875)"><g><path d="M -4.984375 -28.609375 C -3.109375 -30.171875 -1.039062 -31.171875 1.21875 -31.609375 C 3.488281 -32.046875 5.691406 -31.882812 7.828125 -31.125 C 9.972656 -30.363281 11.796875 -29.078125 13.296875 -27.265625 C 14.816406 -25.429688 15.75 -23.394531 16.09375 -21.15625 C 16.445312 -18.914062 16.207031 -16.710938 15.375 -14.546875 C 14.539062 -12.378906 13.1875 -10.515625 11.3125 -8.953125 C 9.425781 -7.398438 7.34375 -6.414062 5.0625 -6 C 2.789062 -5.582031 0.585938 -5.753906 -1.546875 -6.515625 C -3.691406 -7.273438 -5.523438 -8.570312 -7.046875 -10.40625 C -8.546875 -12.21875 -9.46875 -14.242188 -9.8125 -16.484375 C -10.164062 -18.722656 -9.921875 -20.914062 -9.078125 -23.0625 C -8.234375 -25.207031 -6.867188 -27.054688 -4.984375 -28.609375 Z M -2.515625 -25.71875 C -3.753906 -24.6875 -4.648438 -23.425781 -5.203125 -21.9375 C -5.765625 -20.445312 -5.925781 -18.921875 -5.6875 -17.359375 C -5.445312 -15.796875 -4.804688 -14.382812 -3.765625 -13.125 C -2.710938 -11.863281 -1.429688 -10.960938 0.078125 -10.421875 C 1.585938 -9.878906 3.128906 -9.734375 4.703125 -9.984375 C 6.273438 -10.242188 7.679688 -10.890625 8.921875 -11.921875 C 10.160156 -12.953125 11.039062 -14.207031 11.5625 -15.6875 C 12.09375 -17.175781 12.222656 -18.703125 11.953125 -20.265625 C 11.679688 -21.835938 11.019531 -23.253906 9.96875 -24.515625 C 8.925781 -25.773438 7.664062 -26.675781 6.1875 -27.21875 C 4.71875 -27.757812 3.207031 -27.898438 1.65625 -27.640625 C 0.113281 -27.390625 -1.273438 -26.75 -2.515625 -25.71875 Z M -2.515625 -25.71875 "/></g></g></g><g fill="#000000" fill-opacity="1"><g transform="translate(99.461092, 68.565635)"><g><path d="M 21 -11.359375 L 16.796875 -9.078125 L 9.1875 -13.5625 C 8.988281 -13.425781 8.660156 -13.234375 8.203125 -12.984375 L 3 -10.171875 L 6.578125 -3.5625 L 2.890625 -1.5625 L -8.96875 -23.5 L -0.078125 -28.3125 C 2.722656 -29.820312 5.242188 -30.34375 7.484375 -29.875 C 9.734375 -29.40625 11.503906 -27.976562 12.796875 -25.59375 C 13.742188 -23.84375 14.15625 -22.144531 14.03125 -20.5 C 13.90625 -18.863281 13.265625 -17.378906 12.109375 -16.046875 Z M 1.203125 -13.5 L 6.40625 -16.3125 C 8.113281 -17.238281 9.226562 -18.316406 9.75 -19.546875 C 10.269531 -20.785156 10.132812 -22.132812 9.34375 -23.59375 C 8.570312 -25.019531 7.535156 -25.835938 6.234375 -26.046875 C 4.929688 -26.265625 3.425781 -25.910156 1.71875 -24.984375 L -3.484375 -22.171875 Z M 1.203125 -13.5 "/></g></g></g><g fill="#000000" fill-opacity="1"><g transform="translate(126.443794, 54.476799)"><g><path d="M 9.625 -18.125 L 23.78125 -7.59375 L 18.984375 -6.0625 L 7.78125 -14.078125 L 5.171875 -8.390625 L 7.125 -2.28125 L 3.125 -1 L -4.453125 -24.75 L -0.453125 -26.03125 L 3.53125 -13.546875 L 10.875 -29.640625 L 15.59375 -31.140625 Z M 9.625 -18.125 "/></g></g></g><g fill="#000000" fill-opacity="1"><g transform="translate(155.982941, 46.017101)"><g/></g></g><g fill="#000000" fill-opacity="1"><g transform="translate(170.169074, 42.778904)"><g><path d="M 27.3125 -4.390625 L 33.609375 -24.6875 L 37.953125 -24.65625 L 29.3125 0.21875 L 24.96875 0.1875 L 19.09375 -19.453125 L 12.828125 0.09375 L 8.515625 0.0625 L 0.296875 -24.9375 L 4.8125 -24.90625 L 10.828125 -4.515625 L 17.140625 -24.8125 L 21.28125 -24.78125 Z M 27.3125 -4.390625 "/></g></g></g><g fill="#000000" fill-opacity="1"><g transform="translate(212.673662, 44.723566)"><g><path d="M 3.21875 0.609375 L 7.84375 -23.890625 L 11.984375 -23.109375 L 7.359375 1.390625 Z M 3.21875 0.609375 "/></g></g></g><g fill="#000000" fill-opacity="1"><g transform="translate(228.468556, 47.728422)"><g><path d="M 6.890625 -20 L 8.0625 -23.59375 L 27.0625 -17.390625 L 25.890625 -13.796875 L 18.359375 -16.265625 L 11.78125 3.84375 L 7.78125 2.546875 L 14.359375 -17.5625 Z M 6.890625 -20 "/></g></g></g><g fill="#000000" fill-opacity="1"><g transform="translate(252.597465, 55.709508)"><g><path d="M 2.890625 1.5625 L 14.75 -20.375 L 18.4375 -18.375 L 13.28125 -8.84375 L 24.921875 -2.5625 L 30.078125 -12.09375 L 33.765625 -10.09375 L 21.90625 11.84375 L 18.21875 9.84375 L 23.125 0.75 L 11.484375 -5.53125 L 6.578125 3.5625 Z M 2.890625 1.5625 "/></g></g></g><g fill="#000000" fill-opacity="1"><g transform="translate(281.318653, 72.435389)"><g/></g></g><g fill="#000000" fill-opacity="1"><g transform="translate(293.31089, 81.108554)"><g><path d="M 12.171875 -2.25 C 10.691406 -0.78125 9.941406 0.796875 9.921875 2.484375 C 9.910156 4.179688 10.617188 5.742188 12.046875 7.171875 C 13.453125 8.578125 14.988281 9.273438 16.65625 9.265625 C 18.320312 9.253906 19.90625 8.503906 21.40625 7.015625 L 31.828125 -3.375 L 34.78125 -0.390625 L 24.359375 10 C 22.828125 11.519531 21.203125 12.53125 19.484375 13.03125 C 17.765625 13.539062 16.023438 13.523438 14.265625 12.984375 C 12.515625 12.441406 10.875 11.398438 9.34375 9.859375 C 7.78125 8.296875 6.726562 6.628906 6.1875 4.859375 C 5.65625 3.097656 5.644531 1.359375 6.15625 -0.359375 C 6.664062 -2.085938 7.6875 -3.710938 9.21875 -5.234375 L 19.640625 -15.625 L 22.59375 -12.640625 Z M 12.171875 -2.25 "/></g></g></g><g fill="#000000" fill-opacity="1"><g transform="translate(315.250528, 104.086378)"><g><path d="M 26.09375 4.453125 C 26.007812 2.953125 25.757812 1.566406 25.34375 0.296875 C 24.9375 -0.972656 24.441406 -2.03125 23.859375 -2.875 C 23.160156 -3.894531 22.414062 -4.578125 21.625 -4.921875 C 20.832031 -5.265625 20.078125 -5.191406 19.359375 -4.703125 C 18.734375 -4.273438 18.351562 -3.722656 18.21875 -3.046875 C 18.082031 -2.378906 18.097656 -1.671875 18.265625 -0.921875 C 18.429688 -0.171875 18.707031 0.84375 19.09375 2.125 C 19.625 3.820312 19.988281 5.238281 20.1875 6.375 C 20.394531 7.519531 20.3125 8.671875 19.9375 9.828125 C 19.5625 10.992188 18.726562 12.023438 17.4375 12.921875 C 16.21875 13.742188 14.925781 14.144531 13.5625 14.125 C 12.207031 14.101562 10.878906 13.671875 9.578125 12.828125 C 8.285156 11.984375 7.125 10.804688 6.09375 9.296875 C 5 7.710938 4.242188 5.984375 3.828125 4.109375 C 3.410156 2.234375 3.332031 0.414062 3.59375 -1.34375 L 7.640625 -1.90625 C 7.390625 -0.21875 7.421875 1.429688 7.734375 3.046875 C 8.054688 4.660156 8.597656 6.023438 9.359375 7.140625 C 10.179688 8.335938 11.054688 9.117188 11.984375 9.484375 C 12.921875 9.859375 13.789062 9.773438 14.59375 9.234375 C 15.238281 8.785156 15.625 8.21875 15.75 7.53125 C 15.882812 6.84375 15.863281 6.113281 15.6875 5.34375 C 15.519531 4.570312 15.238281 3.554688 14.84375 2.296875 C 14.28125 0.597656 13.898438 -0.804688 13.703125 -1.921875 C 13.515625 -3.046875 13.597656 -4.179688 13.953125 -5.328125 C 14.316406 -6.484375 15.140625 -7.503906 16.421875 -8.390625 C 17.578125 -9.171875 18.800781 -9.546875 20.09375 -9.515625 C 21.394531 -9.492188 22.675781 -9.082031 23.9375 -8.28125 C 25.195312 -7.476562 26.332031 -6.34375 27.34375 -4.875 C 28.226562 -3.582031 28.90625 -2.175781 29.375 -0.65625 C 29.84375 0.863281 30.097656 2.351562 30.140625 3.8125 Z M 26.09375 4.453125 "/></g></g></g><g fill="#000000" fill-opacity="1"><g transform="translate(327.991651, 261.692372)"><g><path d="M -14.34375 23.640625 L -2.96875 41.59375 L -5.8125 44.875 L -19.15625 22.1875 L -16.3125 18.890625 L 2.4375 27.15625 L -8.390625 9.703125 L -5.5625 6.4375 L 18.796875 16.375 L 15.859375 19.796875 L -3.578125 11.171875 L 7.796875 29.125 L 5.09375 32.265625 Z M -14.34375 23.640625 "/></g></g></g><g fill="#000000" fill-opacity="1"><g transform="translate(299.742199, 292.866426)"><g><path d="M 3.15625 28.875 C 1.175781 30.320312 -0.957031 31.1875 -3.25 31.46875 C -5.539062 31.757812 -7.726562 31.457031 -9.8125 30.5625 C -11.894531 29.664062 -13.628906 28.265625 -15.015625 26.359375 C -16.410156 24.441406 -17.210938 22.351562 -17.421875 20.09375 C -17.628906 17.832031 -17.25 15.644531 -16.28125 13.53125 C -15.3125 11.425781 -13.835938 9.648438 -11.859375 8.203125 C -9.878906 6.773438 -7.738281 5.925781 -5.4375 5.65625 C -3.144531 5.394531 -0.957031 5.710938 1.125 6.609375 C 3.21875 7.503906 4.960938 8.910156 6.359375 10.828125 C 7.742188 12.734375 8.535156 14.816406 8.734375 17.078125 C 8.941406 19.335938 8.554688 21.507812 7.578125 23.59375 C 6.609375 25.6875 5.132812 27.445312 3.15625 28.875 Z M 0.875 25.8125 C 2.175781 24.863281 3.15625 23.660156 3.8125 22.203125 C 4.46875 20.753906 4.722656 19.242188 4.578125 17.671875 C 4.429688 16.109375 3.875 14.660156 2.90625 13.328125 C 1.945312 12.003906 0.734375 11.023438 -0.734375 10.390625 C -2.210938 9.765625 -3.742188 9.523438 -5.328125 9.671875 C -6.910156 9.816406 -8.351562 10.363281 -9.65625 11.3125 C -10.96875 12.257812 -11.929688 13.457031 -12.546875 14.90625 C -13.171875 16.363281 -13.394531 17.878906 -13.21875 19.453125 C -13.050781 21.035156 -12.488281 22.488281 -11.53125 23.8125 C -10.5625 25.144531 -9.359375 26.125 -7.921875 26.75 C -6.484375 27.382812 -4.984375 27.625 -3.421875 27.46875 C -1.867188 27.3125 -0.4375 26.757812 0.875 25.8125 Z M 0.875 25.8125 "/></g></g></g><g fill="#000000" fill-opacity="1"><g transform="translate(272.339156, 312.030433)"><g><path d="M -21.671875 10.015625 L -17.328125 8.015625 L -10.015625 12.9375 C -9.804688 12.820312 -9.46875 12.65625 -9 12.4375 L -3.640625 9.96875 L -6.796875 3.140625 L -2.984375 1.375 L 7.46875 24.015625 L -1.703125 28.25 C -4.597656 29.59375 -7.148438 29.957031 -9.359375 29.34375 C -11.578125 28.726562 -13.253906 27.191406 -14.390625 24.734375 C -15.222656 22.929688 -15.519531 21.210938 -15.28125 19.578125 C -15.050781 17.953125 -14.320312 16.507812 -13.09375 15.25 Z M -2.0625 13.390625 L -7.421875 15.859375 C -9.191406 16.679688 -10.375 17.691406 -10.96875 18.890625 C -11.5625 20.097656 -11.507812 21.457031 -10.8125 22.96875 C -10.132812 24.425781 -9.148438 25.300781 -7.859375 25.59375 C -6.578125 25.894531 -5.050781 25.632812 -3.28125 24.8125 L 2.078125 22.34375 Z M -2.0625 13.390625 "/></g></g></g><g fill="#000000" fill-opacity="1"><g transform="translate(244.51405, 324.396373)"><g><path d="M -10.734375 17.46875 L -24.21875 6.09375 L -19.3125 4.875 L -8.625 13.578125 L -5.6875 8.046875 L -7.25 1.828125 L -3.1875 0.796875 L 2.90625 24.984375 L -1.15625 26.015625 L -4.359375 13.296875 L -12.6875 28.921875 L -17.5 30.125 Z M -10.734375 17.46875 "/></g></g></g><g fill="#000000" fill-opacity="1"><g transform="translate(214.499741, 331.010739)"><g/></g></g><g fill="#000000" fill-opacity="1"><g transform="translate(200.132822, 333.367572)"><g><path d="M -27.53125 2.734375 L -35.03125 22.609375 L -39.359375 22.3125 L -29.25 -1.984375 L -24.90625 -1.6875 L -20.234375 18.265625 L -12.796875 -0.875 L -8.5 -0.578125 L -1.796875 24.875 L -6.296875 24.5625 L -11.078125 3.84375 L -18.59375 23.71875 L -22.734375 23.4375 Z M -27.53125 2.734375 "/></g></g></g><g fill="#000000" fill-opacity="1"><g transform="translate(157.813312, 328.857282)"><g><path d="M -3.1875 -0.796875 L -9.265625 23.390625 L -13.34375 22.359375 L -7.265625 -1.828125 Z M -3.1875 -0.796875 "/></g></g></g><g fill="#000000" fill-opacity="1"><g transform="translate(142.219614, 324.91239)"><g><path d="M -8.0625 19.5625 L -9.453125 23.078125 L -28.046875 15.765625 L -26.65625 12.25 L -19.28125 15.15625 L -11.53125 -4.53125 L -7.625 -3 L -15.375 16.6875 Z M -8.0625 19.5625 "/></g></g></g><g fill="#000000" fill-opacity="1"><g transform="translate(118.596312, 315.515334)"><g><path d="M -2.796875 -1.71875 L -15.90625 19.484375 L -19.46875 17.265625 L -13.78125 8.0625 L -25.03125 1.109375 L -30.71875 10.3125 L -34.296875 8.109375 L -21.1875 -13.09375 L -17.609375 -10.890625 L -23.046875 -2.109375 L -11.796875 4.84375 L -6.359375 -3.9375 Z M -2.796875 -1.71875 "/></g></g></g><g fill="#000000" fill-opacity="1"><g transform="translate(90.888592, 297.144317)"><g/></g></g><g fill="#000000" fill-opacity="1"><g transform="translate(79.41077, 287.789491)"><g><path d="M -12.28125 1.5625 C -10.726562 0.175781 -9.894531 -1.359375 -9.78125 -3.046875 C -9.664062 -4.734375 -10.28125 -6.332031 -11.625 -7.84375 C -12.945312 -9.332031 -14.4375 -10.117188 -16.09375 -10.203125 C -17.75 -10.285156 -19.367188 -9.625 -20.953125 -8.21875 L -31.96875 1.546875 L -34.765625 -1.59375 L -23.75 -11.359375 C -22.132812 -12.785156 -20.453125 -13.703125 -18.703125 -14.109375 C -16.960938 -14.523438 -15.234375 -14.410156 -13.515625 -13.765625 C -11.796875 -13.128906 -10.210938 -12 -8.765625 -10.375 C -7.296875 -8.71875 -6.34375 -6.992188 -5.90625 -5.203125 C -5.46875 -3.410156 -5.550781 -1.671875 -6.15625 0.015625 C -6.757812 1.710938 -7.867188 3.273438 -9.484375 4.703125 L -20.5 14.46875 L -23.296875 11.328125 Z M -12.28125 1.5625 "/></g></g></g><g fill="#000000" fill-opacity="1"><g transform="translate(58.804605, 263.596054)"><g><path d="M -25.796875 -5.90625 C -25.796875 -4.40625 -25.628906 -3.007812 -25.296875 -1.71875 C -24.960938 -0.425781 -24.53125 0.65625 -24 1.53125 C -23.351562 2.59375 -22.644531 3.316406 -21.875 3.703125 C -21.101562 4.085938 -20.347656 4.054688 -19.609375 3.609375 C -18.953125 3.210938 -18.535156 2.679688 -18.359375 2.015625 C -18.179688 1.359375 -18.15625 0.648438 -18.28125 -0.109375 C -18.40625 -0.867188 -18.628906 -1.898438 -18.953125 -3.203125 C -19.378906 -4.910156 -19.660156 -6.34375 -19.796875 -7.5 C -19.941406 -8.65625 -19.789062 -9.800781 -19.34375 -10.9375 C -18.90625 -12.070312 -18.015625 -13.050781 -16.671875 -13.875 C -15.421875 -14.632812 -14.117188 -14.960938 -12.765625 -14.859375 C -11.410156 -14.753906 -10.109375 -14.242188 -8.859375 -13.328125 C -7.609375 -12.421875 -6.503906 -11.1875 -5.546875 -9.625 C -4.554688 -7.976562 -3.898438 -6.207031 -3.578125 -4.3125 C -3.265625 -2.425781 -3.296875 -0.601562 -3.671875 1.15625 L -7.71875 1.484375 C -7.382812 -0.191406 -7.328125 -1.84375 -7.546875 -3.46875 C -7.773438 -5.101562 -8.242188 -6.5 -8.953125 -7.65625 C -9.703125 -8.894531 -10.53125 -9.722656 -11.4375 -10.140625 C -12.34375 -10.554688 -13.210938 -10.515625 -14.046875 -10.015625 C -14.722656 -9.609375 -15.144531 -9.066406 -15.3125 -8.390625 C -15.476562 -7.710938 -15.5 -6.984375 -15.375 -6.203125 C -15.25 -5.429688 -15.019531 -4.40625 -14.6875 -3.125 C -14.226562 -1.40625 -13.929688 0.0195312 -13.796875 1.15625 C -13.671875 2.289062 -13.816406 3.421875 -14.234375 4.546875 C -14.660156 5.671875 -15.535156 6.640625 -16.859375 7.453125 C -18.046875 8.171875 -19.289062 8.476562 -20.59375 8.375 C -21.894531 8.28125 -23.148438 7.796875 -24.359375 6.921875 C -25.578125 6.054688 -26.648438 4.863281 -27.578125 3.34375 C -28.398438 2 -29 0.554688 -29.375 -0.984375 C -29.757812 -2.535156 -29.925781 -4.035156 -29.875 -5.484375 Z M -25.796875 -5.90625 "/></g></g></g><g clip-path="url(#62dda8e98b)"><g clip-path="url(#4fbb7f0afd)"><path fill="#000000" d="M 329.941406 230.179688 L 357.546875 230.179688 L 357.546875 257.785156 L 329.941406 257.785156 Z M 329.941406 230.179688 " fill-opacity="1" fill-rule="nonzero"/></g></g></svg>